<?xml version="1.0" encoding="UTF-8" standalone="no"?>
<!-- Created with Inkscape (http://www.inkscape.org/) -->

<svg
   width="943"
   height="256"
   viewBox="0 0 249.50208 67.733332"
   version="1.1"
   id="svg5"
   xml:space="preserve"
   inkscape:version="1.2.2 (b0a8486541, 2022-12-01)"
   sodipodi:docname="arisnet-logo-orange-wide.svg"
   xmlns:inkscape="http://www.inkscape.org/namespaces/inkscape"
   xmlns:sodipodi="http://sodipodi.sourceforge.net/DTD/sodipodi-0.dtd"
   xmlns="http://www.w3.org/2000/svg"
   xmlns:svg="http://www.w3.org/2000/svg"><sodipodi:namedview
     id="namedview7"
     pagecolor="#ffffff"
     bordercolor="#000000"
     borderopacity="0.25"
     inkscape:showpageshadow="2"
     inkscape:pageopacity="0.0"
     inkscape:pagecheckerboard="0"
     inkscape:deskcolor="#d1d1d1"
     inkscape:document-units="px"
     showgrid="false"
     inkscape:zoom="0.52247369"
     inkscape:cx="487.10586"
     inkscape:cy="258.38621"
     inkscape:window-width="1920"
     inkscape:window-height="1128"
     inkscape:window-x="0"
     inkscape:window-y="0"
     inkscape:window-maximized="1"
     inkscape:current-layer="g8606" /><defs
     id="defs2" /><g
     inkscape:label="Layer 1"
     inkscape:groupmode="layer"
     id="layer1"><g
       id="g8620"
       transform="matrix(2.8939357,0,0,2.8939357,-242.61077,-69.772627)"><g
         id="g8302"><circle
           style="fill:none;stroke:#ff5500;stroke-width:2.11667;stroke-dasharray:none;stroke-opacity:1"
           id="path231"
           cx="95.536827"
           cy="35.812576"
           r="10.644298" /><circle
           style="fill:none;stroke:#ff5500;stroke-width:1.49699;stroke-dasharray:none;stroke-opacity:1"
           id="path231-3"
           cx="95.536827"
           cy="33.2467"
           r="7.5280471" /></g><g
         id="g8606"><path
           id="rect8356"
           style="stroke-width:0;fill:#ff5500;fill-opacity:1"
           d="m 122.51138,32.092097 -1.38803,5.17e-4 -2.67735,7.295162 1.21078,0.0036 0.79581,-1.891357 2.71198,-0.01085 0.709,1.906343 1.16686,-0.0067 z m -0.75137,1.564763 1.07642,2.901631 -2.18695,-0.0083 z" /><path
           id="rect8483"
           style="stroke-width:0;fill:#ff5500;fill-opacity:1"
           d="m 130.61321,32.076078 -2.37711,0.02325 h -1.16014 v 7.256405 h 1.16014 l 0.0362,-2.671672 0.92501,-0.0083 2.10736,2.68459 1.35238,-0.02946 -2.08308,-2.627747 c 2.24731,0.06023 2.52174,-4.629907 0.0393,-4.627107 z m -2.32915,0.944128 h 1.90282 c 1.3371,-0.0078 1.36295,2.748142 0,2.757971 h -1.90282 z"
           sodipodi:nodetypes="cccccccccccccccc" /><rect
           style="fill:#ff5500;fill-opacity:1;stroke:none;stroke-width:0;stroke-dasharray:none;stroke-opacity:1"
           id="rect8490"
           width="1.0953794"
           height="7.1488299"
           x="134.5947"
           y="32.079391" /><path
           id="rect8492"
           style="stroke-width:0;fill:#ff5500;fill-opacity:1"
           d="m 140.98157,32.031119 c -0.0485,-10e-7 -0.0985,0.0013 -0.15038,0.0036 -0.82975,0.03671 -1.83062,0.649314 -1.78852,1.519287 0.042,0.869472 0.36342,0.957252 0.67128,1.25212 -1.04892,0.760524 -1.61358,0.954992 -1.60394,2.371776 0.01,1.416785 1.63064,2.138192 3.04106,2.151462 0.81462,-0.0066 1.65536,-0.0823 2.29367,-0.570594 l 0.59659,0.566459 1.16944,0.0021 -1.07383,-1.314648 c 0.56514,-0.644649 0.38122,-1.453632 0.29042,-2.24224 l -0.99839,-0.01137 c 0.0837,0.59234 0.26547,1.258538 -0.15141,1.474845 0,0 -2.10322,-2.242258 -2.84582,-3.123323 -0.74262,-0.881064 0.0927,-1.199249 0.68678,-1.228349 0.59403,-0.0291 0.69298,0.253214 0.69298,0.253214 l 0.77979,-0.413928 c -0.51811,-0.434718 -0.88251,-0.690379 -1.60972,-0.690397 z m -0.69412,3.477466 2.41476,2.510884 c 0,0 -0.32816,0.43229 -1.56514,0.443536 -1.30198,0.01184 -1.95443,-0.550599 -1.98123,-1.433225 -0.0268,-0.882625 1.13161,-1.521195 1.13161,-1.521195 z"
           sodipodi:nodetypes="sscczccccccccssccsccssc" /><path
           id="rect8492-7"
           style="stroke-width:0;fill:#ff5500;fill-opacity:1"
           d="m 146.65339,33.873321 c -0.003,0.833832 0.0237,1.589563 2.13274,2.303778 2.10905,0.714215 1.68722,2.245416 -0.17868,2.274561 -0.74536,0.0029 -1.38409,-0.329083 -1.38409,-0.329083 l -0.73296,0.619462 c 0,0 0.67167,0.667311 2.05599,0.634399 1.38433,-0.03291 2.84859,-0.48447 2.8828,-1.774151 0.0342,-1.28968 -0.86864,-1.835203 -1.97957,-2.37272 -1.11092,-0.537518 -1.6964,-0.410408 -1.67817,-1.300885 0.0182,-0.890478 0.4793,-1.052805 1.42176,-1.054546 0.94246,-0.0017 1.20946,0.426169 1.20946,0.426169 l 0.78601,-0.500448 c -0.55752,-0.492339 -1.04697,-0.807075 -2.28048,-0.819061 -1.23351,-0.01199 -2.25137,1.058694 -2.25481,1.892525 z"
           sodipodi:nodetypes="zzccczzzzzcczz" /><path
           id="rect8526"
           style="stroke-width:0;fill:#ff5500;fill-opacity:1"
           d="m 153.38713,33.889267 h 1.13111 v 0.650269 c 0,0 0.32702,-0.614258 1.71287,-0.637666 1.38584,-0.02341 1.97258,0.667396 1.97603,1.706181 0.003,1.038785 -0.0239,3.801424 -0.0239,3.801424 l -1.22959,0.003 c 0,0 0.002,-2.964728 -5.7e-4,-3.399553 -0.003,-0.434824 0.14029,-1.135902 -0.96935,-1.159695 -1.10963,-0.02379 -1.46548,1.264173 -1.46548,1.264173 v 3.294723 h -1.13111 z"
           sodipodi:nodetypes="ccczzcczzcccc" /><path
           id="path8531"
           style="fill:#ff5500;fill-opacity:1;stroke:none;stroke-width:0;stroke-dasharray:none;stroke-opacity:1"
           d="m 162.90892,33.774165 c -1.79457,-0.03506 -2.84706,1.274494 -2.84686,2.846855 8e-5,1.572159 1.2747,2.846545 2.84686,2.846338 0.97264,-5.51e-4 1.98107,-0.4943 2.50326,-1.314874 l -1.32514,-0.0059 c -0.28051,0.328595 -0.57144,0.324584 -1.30639,0.334033 -0.73495,0.0095 -1.42453,-0.63901 -1.43098,-1.383644 l 4.36304,0.0041 c -0.29264,-1.547166 -1.00922,-3.291837 -2.80379,-3.326899 z m -0.10822,0.990849 c 0.8863,0.01706 1.4258,0.821597 1.43992,1.524243 h -2.94349 c 0.10031,-0.872596 0.61727,-1.541305 1.50357,-1.524243 z"
           sodipodi:nodetypes="zcccczcczcczc" /><path
           id="rect8595"
           style="stroke-width:0;fill:#ff5500;fill-opacity:1"
           d="m 167.43848,32.602467 h 1.06398 v 1.343673 l 1.52019,-0.0071 -0.004,0.816808 -1.51634,0.02074 v 3.13293 c -0.0173,0.43583 0.15066,0.551955 0.53184,0.528065 l 0.91608,-0.0085 0.0149,0.844499 -1.39593,0.04494 c -0.72371,-0.0021 -1.13856,-0.420656 -1.13091,-1.408997 v -3.11558 l -0.85303,-0.01108 -0.0212,-0.840754 0.87424,-0.0024 z"
           sodipodi:nodetypes="ccccccccccccccccc" /></g></g></g></svg>
