<?xml version="1.0" encoding="UTF-8"?>
<svg id="Ebene_1" xmlns="http://www.w3.org/2000/svg" version="1.1" viewBox="0 0 299.21 57.51">
  <!-- Generator: Adobe Illustrator 29.8.1, SVG Export Plug-In . SVG Version: 2.1.1 Build 2)  -->
  <defs>
    <style>
      .st0 {
        fill: #2f2e97;
      }
    </style>
  </defs>
  <path class="st0" d="M116.15,43.55c2.55-.44,3.85-1.95,3.85-4.5,0-1.61-.5-2.82-1.47-3.6-.96-.77-2.46-1.17-4.46-1.17h-4.08c-.36,0-.59.22-.59.57v13.38c0,.36.23.59.59.59h1.04c.36,0,.59-.23.59-.59v-4.45h2.07l3.97,4.68c.24.3.51.36.69.36h1.2c.34,0,.46-.19.5-.3.04-.12.06-.31-.11-.54l-3.79-4.44h0ZM111.62,41.7v-5.34h2.41c1.35,0,2.33.22,2.9.64.56.41.83,1.08.83,2.05s-.27,1.6-.81,2.01c-.56.42-1.56.64-2.96.64,0,0-2.37,0-2.37,0ZM130.32,23.98c.99-.69,1.5-1.69,1.5-2.99,0-.44-.05-.85-.15-1.21-.1-.37-.29-.71-.55-1.03-.24-.29-.47-.53-.66-.71-.21-.2-.53-.41-.99-.65-.44-.23-.76-.38-.94-.47l-2.66-1.19c-.2-.09-.35-.17-.45-.26l-.44-.37c-.19-.16-.27-.26-.3-.33-.06-.11-.11-.24-.16-.4-.05-.15-.07-.3-.07-.46,0-.61.22-1.05.66-1.34.47-.31,1.25-.47,2.31-.47s2.01.15,2.75.44c.18.07.33.07.47,0,.09-.04.21-.14.27-.33l.32-.89c.09-.3-.05-.56-.38-.68-.95-.4-2.14-.6-3.56-.6-1.68,0-2.95.34-3.79,1-.85.68-1.28,1.65-1.28,2.89,0,.37.04.72.13,1.03.08.32.19.59.31.83.13.25.32.49.58.71l.6.52c.19.16.46.32.82.48l3.34,1.48c.42.19.61.31.69.38.13.11.29.26.49.45.17.16.28.33.33.5.06.19.09.4.09.63,0,.63-.27,1.11-.83,1.45-.59.36-1.42.54-2.48.54-1.28,0-2.4-.19-3.32-.56-.18-.08-.34-.08-.47-.01-.14.07-.23.2-.26.36l-.33.92c-.03.13-.06.47.4.67.94.44,2.3.66,4.05.66s3.01-.34,3.97-1h0ZM89.11,22.27c-.81.44-1.71.67-2.66.67-3.06,0-4.55-1.76-4.55-5.39,0-1.79.38-3.15,1.13-4.06.74-.9,1.86-1.35,3.32-1.35.98,0,1.86.2,2.63.59.17.09.33.1.48.04.14-.06.25-.18.31-.35l.34-.85c.05-.13.11-.45-.35-.68-.94-.55-2.17-.83-3.65-.83-2.04,0-3.65.66-4.78,1.97-1.12,1.29-1.69,3.15-1.69,5.52s.58,4.23,1.71,5.52c1.14,1.3,2.78,1.95,4.86,1.95,1.51,0,2.75-.29,3.67-.87.38-.19.41-.46.4-.61l-.4-.94c-.15-.33-.42-.47-.77-.34h0ZM132.59,42.76c-.24-.29-.47-.53-.66-.71-.21-.2-.53-.41-.99-.65-.44-.23-.76-.38-.94-.47l-2.66-1.19c-.2-.09-.35-.17-.45-.26l-.44-.37c-.19-.16-.27-.26-.3-.33-.06-.11-.11-.24-.16-.4-.05-.15-.07-.3-.07-.46,0-.61.22-1.05.66-1.34.47-.31,1.25-.47,2.31-.47s2.01.15,2.75.44c.18.07.33.07.47,0,.09-.04.21-.14.27-.33l.32-.89c.09-.3-.05-.56-.38-.68-.95-.4-2.14-.6-3.56-.6-1.68,0-2.95.34-3.79,1-.85.68-1.28,1.65-1.28,2.89,0,.37.04.72.13,1.03.08.32.19.59.31.83.13.25.32.49.58.71l.6.52c.19.16.46.32.82.48l3.34,1.48c.42.19.61.31.69.38.13.11.29.26.49.45.17.16.28.33.33.5.06.19.09.4.09.63,0,.63-.27,1.11-.83,1.45-.59.36-1.42.54-2.48.54-1.28,0-2.4-.19-3.32-.56-.18-.08-.34-.08-.47,0-.14.07-.23.2-.26.36l-.33.92c-.03.13-.06.47.4.67.94.44,2.3.66,4.05.66s3.01-.34,3.97-1c.99-.69,1.5-1.69,1.5-2.99,0-.44-.05-.85-.15-1.21-.1-.37-.29-.71-.55-1.03h0ZM94.97,24.82h7.44c.36,0,.59-.23.59-.59v-.96c0-.34-.23-.55-.59-.55h-5.81v-11.87c0-.35-.23-.57-.59-.57h-1.04c-.36,0-.59.22-.59.57v13.38c0,.36.23.59.59.59ZM146.33,46.27c-.81.44-1.71.67-2.66.67-3.06,0-4.55-1.76-4.55-5.39,0-1.79.38-3.15,1.13-4.06.74-.9,1.86-1.35,3.32-1.35.98,0,1.86.2,2.63.59.17.09.33.1.48.04s.25-.18.31-.35l.34-.85c.05-.13.11-.45-.35-.68-.94-.55-2.17-.83-3.65-.83-2.04,0-3.65.66-4.78,1.97-1.12,1.29-1.69,3.15-1.69,5.52s.58,4.23,1.71,5.52c1.14,1.3,2.78,1.95,4.86,1.95,1.51,0,2.75-.29,3.67-.87.38-.19.41-.46.4-.61l-.4-.94c-.15-.33-.42-.47-.77-.34h0ZM116.41,23.62c.92-.95,1.39-2.3,1.39-4.01v-8.76c0-.35-.22-.57-.57-.57h-1.06c-.35,0-.57.22-.57.57v8.64c0,2.35-1.09,3.49-3.33,3.49s-3.33-1.14-3.33-3.49v-8.64c0-.35-.23-.57-.59-.57h-1.04c-.36,0-.59.22-.59.57v8.76c0,1.71.47,3.06,1.4,4.01s2.33,1.44,4.15,1.44,3.21-.48,4.14-1.44ZM88.37,34.28h-7.52c-.36,0-.59.22-.59.57v13.38c0,.36.23.59.59.59h1.04c.36,0,.59-.23.59-.59v-5.65h5.75c.36,0,.59-.22.59-.57v-.86c0-.36-.23-.59-.59-.59h-5.75v-4.22h5.89c.35,0,.57-.23.57-.59v-.92c0-.34-.22-.55-.57-.55ZM98.71,34.06c-2.02,0-3.59.66-4.67,1.97-1.07,1.29-1.62,3.15-1.62,5.52s.54,4.22,1.62,5.51c1.08,1.3,2.65,1.96,4.65,1.96s3.61-.66,4.69-1.96c1.07-1.29,1.62-3.14,1.62-5.51s-.54-4.23-1.62-5.52c-1.08-1.31-2.66-1.97-4.67-1.97ZM101.72,45.61c-.67.91-1.65,1.35-3.01,1.35s-2.34-.44-3.01-1.35c-.68-.92-1.02-2.28-1.02-4.06s.34-3.15,1.02-4.07c.67-.91,1.65-1.36,3.01-1.36s2.34.44,3.01,1.36c.68.93,1.02,2.3,1.02,4.07s-.34,3.14-1.02,4.06ZM138.86,24.23c0,.36.23.59.59.59h1.04c.36,0,.59-.23.59-.59v-11.85h3.43c.36,0,.59-.23.59-.59v-.94c0-.35-.23-.57-.59-.57h-9.1c-.35,0-.57.22-.57.57v.94c0,.36.23.59.59.59h3.43v11.85h0ZM251.02,34.79c-.12-.33-.36-.51-.68-.51h-1.34c-.32,0-.56.18-.67.5l-5.03,13.38c-.06.21,0,.36.06.45.07.09.19.21.43.21h1.17c.15,0,.43-.06.59-.47l1.14-3.17h5.87l1.2,3.18c.16.4.45.46.61.46h1.16c.24,0,.37-.11.44-.21.06-.09.12-.24.06-.47l-5.02-13.36h.01ZM247.44,43.12l2.22-6.18,2.17,6.18h-4.4,0ZM157.76,24.21v-.9c0-.35-.23-.57-.59-.57h-5.97v-4.34h5.69c.35,0,.57-.23.57-.59v-.84c0-.36-.22-.59-.57-.59h-5.69v-4.02h5.91c.36,0,.59-.23.59-.59v-.92c0-.35-.23-.57-.59-.57h-7.54c-.35,0-.57.22-.57.57v13.38c0,.36.23.59.59.59h7.58c.36,0,.59-.23.59-.61ZM266.69,34.28h-9.1c-.35,0-.57.22-.57.57v.94c0,.36.23.59.59.59h3.43v11.85c0,.36.23.59.59.59h1.04c.36,0,.59-.23.59-.59v-11.85h3.43c.36,0,.59-.23.59-.59v-.94c0-.35-.23-.57-.59-.57h0ZM294.81,34.28h-1.02c-.35,0-.57.22-.57.57v10.02l-6.61-10.24c-.15-.23-.39-.36-.69-.36h-1.08c-.36,0-.59.22-.59.57v13.38c0,.36.23.59.59.59h1.02c.35,0,.57-.23.57-.59v-9.99l6.61,10.21c.21.31.48.38.67.38h1.1c.36,0,.59-.23.59-.59v-13.4c0-.34-.23-.55-.59-.55h0ZM279.35,46.74h-5.97v-4.34h5.69c.35,0,.57-.23.57-.59v-.84c0-.36-.22-.59-.57-.59h-5.69v-4.02h5.91c.36,0,.59-.23.59-.59v-.92c0-.35-.23-.57-.59-.57h-7.54c-.35,0-.57.22-.57.57v13.38c0,.36.23.59.59.59h7.58c.36,0,.59-.23.59-.61v-.9c0-.35-.23-.57-.59-.57h0ZM233.27,34.28h-3.44c-.35,0-.57.22-.57.57v13.38c0,.36.23.59.59.59h3.46c2.37,0,4.19-.57,5.4-1.71,1.21-1.14,1.83-3.09,1.83-5.8,0-2.5-.62-4.32-1.85-5.41-1.22-1.08-3.04-1.62-5.42-1.62h0ZM237.95,44.04c-.21.7-.54,1.24-.98,1.62-.44.39-.96.66-1.53.82-.59.16-1.31.24-2.15.24h-1.81v-10.34h1.77c1.7,0,2.98.36,3.81,1.08.81.71,1.22,2,1.22,3.85,0,1.09-.11,2.01-.33,2.73h0ZM171.03,24.82h1.2c.34,0,.46-.19.5-.3.04-.12.06-.31-.11-.54l-3.79-4.44c2.55-.44,3.85-1.95,3.85-4.5,0-1.61-.5-2.82-1.47-3.6-.96-.77-2.46-1.17-4.46-1.17h-4.08c-.36,0-.59.22-.59.57v13.38c0,.36.23.59.59.59h1.04c.36,0,.59-.23.59-.59v-4.45h2.07l3.97,4.68c.24.3.51.36.69.36h0ZM164.3,17.7v-5.34h2.41c1.35,0,2.33.22,2.9.64.56.41.83,1.08.83,2.05s-.27,1.6-.81,2.01c-.56.42-1.56.64-2.96.64h-2.37ZM210.63,40.2h-4.24c-.38,0-.61.22-.61.57v.88c0,.35.23.57.61.57h2.65v4.21c-.71.34-1.6.51-2.65.51-1.67,0-2.9-.43-3.67-1.29-.78-.86-1.18-2.25-1.18-4.12s.4-3.24,1.18-4.1c.78-.85,2.05-1.29,3.79-1.29,1.14,0,2.16.23,3.05.68.33.13.63,0,.78-.32l.34-.87c.04-.11.11-.48-.37-.68-1.05-.59-2.37-.89-3.92-.89-4.72,0-7.11,2.51-7.11,7.47s2.36,7.49,7.01,7.49c1.83,0,3.32-.34,4.43-1.02.32-.21.5-.51.5-.87v-6.36c0-.35-.23-.57-.59-.57h0ZM178.17,34.28h-1.06c-.35,0-.57.22-.57.57v8.64c0,2.35-1.09,3.49-3.33,3.49s-3.33-1.14-3.33-3.49v-8.64c0-.35-.23-.57-.59-.57h-1.04c-.36,0-.59.22-.59.57v8.76c0,1.71.47,3.06,1.4,4.01s2.33,1.44,4.15,1.44,3.21-.48,4.14-1.44c.92-.95,1.39-2.3,1.39-4.01v-8.76c0-.35-.22-.57-.57-.57h0ZM194.25,34.28h-1.02c-.35,0-.57.22-.57.57v10.02l-6.61-10.24c-.15-.23-.39-.36-.69-.36h-1.08c-.36,0-.59.22-.59.57v13.38c0,.36.23.59.59.59h1.02c.35,0,.57-.23.57-.59v-9.99l6.61,10.21c.21.31.48.38.67.38h1.1c.36,0,.59-.23.59-.59v-13.4c0-.34-.23-.55-.59-.55ZM162.15,34.28h-1.06c-.36,0-.59.22-.59.57v5.49h-6.68v-5.49c0-.35-.23-.57-.59-.57h-1.04c-.36,0-.59.22-.59.57v13.38c0,.36.23.59.59.59h1.04c.36,0,.59-.23.59-.59v-5.79h6.68v5.79c0,.36.23.59.59.59h1.06c.35,0,.57-.23.57-.59v-13.38c0-.35-.22-.57-.57-.57ZM28.82,3.75C15.03,3.75,3.82,14.97,3.82,28.75s11.22,25,25,25,25-11.22,25-25S42.61,3.75,28.82,3.75ZM28.82,46.98c-10.05,0-18.23-8.18-18.23-18.22S18.77,10.53,28.82,10.53s18.23,8.18,18.23,18.23-8.18,18.22-18.23,18.22ZM221.41,42.43h3.32c.35,0,.58-.23.58-.59v-.94c0-.35-.22-.57-.58-.57h-8.81c-.33,0-.55.22-.55.57v.94c0,.36.22.59.58.59h3.32M219.22,42.27v2.88c0,.3.23.5.61.5h.99c.37,0,.6-.19.6-.5h0l.02-7.65c0-.29-.23-.48-.6-.48h-.99c-.38,0-.62.19-.63.5v2.88"/>
</svg>